<svg width="54" height="54" viewBox="0 0 54 54" fill="none" xmlns="http://www.w3.org/2000/svg">
<path fill-rule="evenodd" clip-rule="evenodd" d="M39.9252 18.8561C39.9252 18.8561 41.5819 15.5426 39.9252 13.3337C38.2685 11.1248 35.5073 11.1248 35.5073 11.1248C35.5073 11.1248 35.5073 7.10118 32.1939 6.15465C28.8805 5.20812 26.6715 8.91583 26.6715 8.91583C26.6715 8.91583 23.3581 7.25912 21.1492 8.36359C18.9402 9.46806 18.9402 12.7815 18.9402 12.7815C18.9402 12.7815 15.6268 12.2292 13.9701 13.8859C12.3134 15.5426 13.4179 18.8561 13.4179 18.8561H17.8358H21.1492H32.1939H35.5073H39.9252Z" fill="#F59E0B"/>
<path d="M21.1492 18.8561H17.8358H13.4179H9L14.8581 45.2175L14.8608 45.2298C15.2279 46.8794 15.4118 47.706 16.0167 48.1908C16.6219 48.6768 17.4713 48.6768 19.1711 48.6768H22.2536L21.1492 18.8561Z" fill="#9F1239"/>
<path d="M32.1939 18.8561H21.1492L22.2536 48.6768H31.0894L32.1939 18.8561Z" fill="#9F1239"/>
<path d="M38.4849 45.2175L44.343 18.8561H39.9252H35.5073H32.1939L31.0894 48.6768H34.1709C35.8707 48.6768 36.72 48.6768 37.3252 48.1908C37.9299 47.7062 38.1139 46.8811 38.4818 45.2316L38.4849 45.2175Z" fill="#9F1239"/>
<path d="M38.4849 45.2175L44.343 18.8561M38.4849 45.2175L38.4818 45.2316M38.4849 45.2175C38.4839 45.2222 38.4828 45.2269 38.4818 45.2316M44.343 18.8561H9M44.343 18.8561H39.9252M9 18.8561L14.8581 45.2175M9 18.8561H13.4179M14.8581 45.2175L14.8608 45.2298M14.8581 45.2175C14.859 45.2216 14.8599 45.2257 14.8608 45.2298M19.1711 48.6768C17.4713 48.6768 16.6219 48.6768 16.0167 48.1908C15.4118 47.706 15.2279 46.8794 14.8608 45.2298M19.1711 48.6768H34.1709M19.1711 48.6768H22.2536M34.1709 48.6768C35.8707 48.6768 36.72 48.6768 37.3252 48.1908C37.9299 47.7062 38.1139 46.8811 38.4818 45.2316M34.1709 48.6768H31.0894M31.0894 48.6768L32.1939 18.8561M31.0894 48.6768H22.2536M32.1939 18.8561H21.1492M32.1939 18.8561H35.5073M22.2536 48.6768L21.1492 18.8561M21.1492 18.8561H17.8358M35.5073 48.6768H17.8358M35.5073 18.8561H17.8358M35.5073 18.8561H39.9252M17.8358 18.8561H13.4179M13.4179 18.8561C13.4179 18.8561 12.3134 15.5426 13.9701 13.8859C15.6268 12.2292 18.9402 12.7815 18.9402 12.7815C18.9402 12.7815 18.9402 9.46806 21.1492 8.36359C23.3581 7.25912 26.6715 8.91583 26.6715 8.91583C26.6715 8.91583 28.8805 5.20812 32.1939 6.15465C35.5073 7.10118 35.5073 11.1248 35.5073 11.1248C35.5073 11.1248 38.2685 11.1248 39.9252 13.3337C41.5819 15.5426 39.9252 18.8561 39.9252 18.8561" stroke="white" stroke-width="3" stroke-linecap="round" stroke-linejoin="round"/>
</svg>
