<svg width="274" height="36" viewBox="0 0 274 36" fill="none" xmlns="http://www.w3.org/2000/svg">
<g clip-path="url(#clip0_101_2)">
<path d="M191.85 35.37H255.75C258.07 35.37 260.368 34.913 262.512 34.025C264.656 33.137 266.604 31.8354 268.245 30.1946C269.885 28.5538 271.187 26.6058 272.075 24.462C272.963 22.3182 273.42 20.0205 273.42 17.7C273.424 15.377 272.97 13.0761 272.084 10.9288C271.197 8.78148 269.896 6.83002 268.255 5.18603C266.614 3.54203 264.665 2.23779 262.519 1.34791C260.373 0.458037 258.073 -3.34799e-06 255.75 0L191.85 0C189.527 -3.34799e-06 187.227 0.458037 185.081 1.34791C182.935 2.23779 180.986 3.54203 179.345 5.18603C177.704 6.83002 176.403 8.78148 175.516 10.9288C174.63 13.0761 174.176 15.377 174.18 17.7C174.18 22.3864 176.042 26.8808 179.355 30.1946C182.669 33.5083 187.164 35.37 191.85 35.37ZM10.1 35.42H17.9V6.92H28V0H0V6.9H10.1V35.42ZM38.2 35.42H46V8.25H46.1L55.05 35.4H61.05L70.3 8.25H70.4V35.4H78.2V0H66.45L58.25 23.1H58.15L50 0H38.2V35.42ZM89.14 0.12H100.84C103.564 0.124186 106.277 0.45999 108.92 1.12C111.327 1.69095 113.595 2.73822 115.59 4.2C117.52 5.65108 119.073 7.54408 120.12 9.72C121.303 12.3051 121.875 15.1282 121.79 17.97C121.844 20.588 121.29 23.1828 120.17 25.55C119.127 27.6801 117.633 29.5571 115.79 31.05C113.904 32.5623 111.75 33.7056 109.44 34.42C106.999 35.1951 104.451 35.5832 101.89 35.57H89.14V0.12ZM96.94 28.32H100.94C102.622 28.3315 104.3 28.1469 105.94 27.77C107.403 27.4731 108.787 26.8698 110 26C111.158 25.1236 112.079 23.9722 112.68 22.65C113.382 21.0506 113.724 19.3162 113.68 17.57C113.71 16.0054 113.367 14.4561 112.68 13.05C112.056 11.8039 111.157 10.7164 110.05 9.87C108.9 9.01566 107.601 8.38165 106.22 8C104.697 7.57407 103.122 7.36204 101.54 7.37H96.94V28.32ZM133.09 0.12H146.29C147.839 0.120755 149.386 0.23103 150.92 0.45C152.375 0.638461 153.786 1.07834 155.09 1.75C156.308 2.38214 157.342 3.31928 158.09 4.47C158.92 5.8742 159.32 7.49089 159.24 9.12C159.309 10.9341 158.715 12.7112 157.57 14.12C156.401 15.4736 154.861 16.4541 153.14 16.94V17C154.247 17.1581 155.321 17.4959 156.32 18C157.242 18.463 158.072 19.0899 158.77 19.85C159.461 20.6112 159.995 21.5016 160.34 22.47C160.712 23.4954 160.899 24.5791 160.89 25.67C160.95 27.3131 160.533 28.9385 159.69 30.35C158.906 31.5787 157.844 32.6062 156.59 33.35C155.272 34.1412 153.828 34.6994 152.32 35C150.765 35.3333 149.18 35.5009 147.59 35.5H133.09V0.12ZM140.89 14.27H146.54C147.139 14.2733 147.737 14.2061 148.32 14.07C148.878 13.9488 149.41 13.7287 149.89 13.42C150.359 13.1178 150.746 12.7059 151.02 12.22C151.313 11.6663 151.458 11.0462 151.44 10.42C151.472 9.78358 151.319 9.15146 151 8.6C150.69 8.12747 150.267 7.73922 149.77 7.47C149.213 7.19022 148.616 6.99796 148 6.9C147.39 6.78211 146.771 6.72185 146.15 6.72H140.85L140.89 14.27ZM140.89 28.92H147.89C148.506 28.9216 149.119 28.8546 149.72 28.72C150.317 28.5979 150.884 28.3601 151.39 28.02C151.895 27.687 152.315 27.2422 152.62 26.72C152.948 26.1238 153.111 25.4504 153.09 24.77C153.117 24.0522 152.898 23.3468 152.47 22.77C152.05 22.251 151.507 21.8453 150.89 21.59C150.249 21.3231 149.577 21.1383 148.89 21.04C148.211 20.9436 147.526 20.8934 146.84 20.89H140.94L140.89 28.92Z" fill="white"/>
</g>
<defs>
<clipPath id="clip0_101_2">
<rect width="273.42" height="35.52" fill="white"/>
</clipPath>
</defs>
</svg>
