<svg width="137" height="28" viewBox="0 0 137 28" fill="none" xmlns="http://www.w3.org/2000/svg">
<path d="M1.30717 22V6.2254H4.51969L10.3909 14.8217H8.99507L14.8441 6.2254H18.0566V22H13.6698V13.4923L14.3124 13.6696L11.0998 18.2779H8.26394L5.07357 13.6696L5.69392 13.4923V22H1.30717ZM26.0774 22.2659C24.8071 22.2659 23.692 22.0295 22.7319 21.5569C21.7718 21.0695 21.0186 20.3974 20.4721 19.5408C19.9403 18.6693 19.6745 17.6723 19.6745 16.5498C19.6745 15.442 19.9329 14.4598 20.4499 13.6031C20.9816 12.7465 21.7054 12.0744 22.6211 11.587C23.5369 11.0848 24.5708 10.8337 25.7229 10.8337C26.8602 10.8337 27.8646 11.07 28.736 11.5427C29.6074 12.0006 30.2869 12.6431 30.7743 13.4702C31.2765 14.2973 31.5276 15.2426 31.5276 16.3061C31.5276 16.5276 31.5128 16.764 31.4833 17.015C31.4685 17.2514 31.4242 17.532 31.3503 17.857L21.5134 17.9234V15.2648L29.733 15.1983L27.7168 16.3725C27.7168 15.7817 27.643 15.3017 27.4953 14.9324C27.3624 14.5484 27.1556 14.2604 26.8749 14.0684C26.5943 13.8764 26.2398 13.7804 25.8115 13.7804C25.3684 13.7804 24.9844 13.8911 24.6594 14.1127C24.3345 14.3343 24.0834 14.6518 23.9061 15.0654C23.7437 15.4789 23.6624 15.9811 23.6624 16.5719C23.6624 17.1775 23.751 17.6871 23.9283 18.1007C24.1203 18.4995 24.3935 18.8022 24.748 19.009C25.1025 19.2158 25.5456 19.3192 26.0774 19.3192C26.5943 19.3192 27.0448 19.238 27.4288 19.0755C27.8276 18.8983 28.1895 18.625 28.5144 18.2557L30.6857 20.4048C30.1392 21.0252 29.4819 21.4904 28.7138 21.8006C27.9458 22.1108 27.067 22.2659 26.0774 22.2659ZM37.5438 22.2216C36.4656 22.2216 35.5203 21.9778 34.7079 21.4904C33.9103 21.003 33.2826 20.3383 32.8247 19.4964C32.3816 18.6398 32.16 17.6576 32.16 16.5498C32.16 15.442 32.3816 14.4598 32.8247 13.6031C33.2826 12.7465 33.9103 12.0818 34.7079 11.6091C35.5203 11.1217 36.4656 10.878 37.5438 10.878C38.1937 10.878 38.8066 10.9888 39.3827 11.2103C39.9587 11.4171 40.4461 11.7125 40.8449 12.0966C41.2585 12.4806 41.517 12.9237 41.6204 13.4259V19.4521C41.517 19.9543 41.2585 20.4196 40.8449 20.8479C40.4461 21.2615 39.9587 21.5938 39.3827 21.8449C38.8066 22.096 38.1937 22.2216 37.5438 22.2216ZM38.3414 18.4108C38.7106 18.4108 39.0282 18.337 39.2941 18.1893C39.5599 18.0268 39.7667 17.8053 39.9144 17.5246C40.0769 17.244 40.1581 16.919 40.1581 16.5498C40.1581 16.1805 40.0843 15.863 39.9366 15.5971C39.7889 15.3165 39.5747 15.0949 39.2941 14.9324C39.0282 14.77 38.718 14.6887 38.3635 14.6887C38.009 14.6887 37.6915 14.77 37.4109 14.9324C37.145 15.0949 36.9308 15.3165 36.7683 15.5971C36.6059 15.8777 36.5246 16.1953 36.5246 16.5498C36.5246 16.9043 36.5985 17.2218 36.7462 17.5025C36.9087 17.7831 37.1302 18.0047 37.4109 18.1671C37.6915 18.3296 38.0017 18.4108 38.3414 18.4108ZM44.2569 22H40.0252V19.0755L40.6234 16.4169L39.9144 13.7804V5.78229H44.2569V22ZM46.3251 22V11.0996H50.6675V22H46.3251ZM48.4963 10.0804C47.8612 10.0804 47.3295 9.86626 46.9011 9.43792C46.4876 8.99482 46.2808 8.4557 46.2808 7.82058C46.2808 7.18546 46.4876 6.65373 46.9011 6.2254C47.3295 5.78229 47.8612 5.56074 48.4963 5.56074C49.1462 5.56074 49.6779 5.78229 50.0915 6.2254C50.5051 6.65373 50.7118 7.18546 50.7118 7.82058C50.7118 8.4557 50.5051 8.99482 50.0915 9.43792C49.6779 9.86626 49.1462 10.0804 48.4963 10.0804ZM57.2717 22.2216C56.2526 22.2216 55.3516 21.9778 54.5688 21.4904C53.786 21.003 53.173 20.3383 52.7299 19.4964C52.2868 18.6398 52.0652 17.6576 52.0652 16.5498C52.0652 15.442 52.2868 14.4598 52.7299 13.6031C53.173 12.7465 53.786 12.0818 54.5688 11.6091C55.3516 11.1217 56.2526 10.878 57.2717 10.878C57.9068 10.878 58.4903 10.9888 59.022 11.2103C59.5685 11.4171 60.019 11.7125 60.3735 12.0966C60.7427 12.4806 60.9791 12.9237 61.0824 13.4259V19.6737C60.9791 20.1759 60.7427 20.619 60.3735 21.003C60.019 21.387 59.5685 21.6898 59.022 21.9114C58.4903 22.1182 57.9068 22.2216 57.2717 22.2216ZM58.2466 18.4108C58.7931 18.4108 59.2288 18.241 59.5537 17.9013C59.8934 17.5468 60.0633 17.0963 60.0633 16.5498C60.0633 16.1805 59.9895 15.863 59.8417 15.5971C59.694 15.3165 59.4799 15.0949 59.1992 14.9324C58.9334 14.77 58.6232 14.6887 58.2687 14.6887C57.9142 14.6887 57.5967 14.77 57.316 14.9324C57.0502 15.0949 56.836 15.3165 56.6735 15.5971C56.5111 15.8777 56.4298 16.1953 56.4298 16.5498C56.4298 16.9043 56.5037 17.2218 56.6514 17.5025C56.8139 17.7831 57.0354 18.0047 57.316 18.1671C57.5967 18.3296 57.9068 18.4108 58.2466 18.4108ZM59.9304 22V19.0755L60.5286 16.4169L59.9304 13.7804V11.0996H64.162V22H59.9304Z" fill="#9F1239"/>
<path d="M70.1075 22V18.8096H73.0098C73.5711 18.8096 74.0216 18.6619 74.3613 18.3665C74.701 18.0563 74.8709 17.6354 74.8709 17.1037C74.8709 16.7492 74.7896 16.4464 74.6271 16.1953C74.4794 15.9294 74.2653 15.73 73.9846 15.5971C73.7188 15.4642 73.3938 15.3977 73.0098 15.3977H70.1075V12.3403H72.8104C73.2831 12.3403 73.6745 12.2221 73.9846 11.9858C74.2948 11.7495 74.4499 11.3802 74.4499 10.878C74.4499 10.3758 74.2948 10.0066 73.9846 9.77025C73.6745 9.53393 73.2831 9.41577 72.8104 9.41577H70.1075V6.2254H74.0511C75.0112 6.2254 75.8457 6.41003 76.5547 6.77928C77.2784 7.13377 77.8397 7.62857 78.2385 8.26369C78.6373 8.88404 78.8367 9.60039 78.8367 10.4128C78.8367 11.5353 78.4379 12.451 77.6403 13.16C76.8427 13.869 75.6758 14.2752 74.1397 14.3786L74.0954 12.8498C75.7645 12.9532 77.0421 13.4111 77.9283 14.2235C78.8145 15.0358 79.2576 16.0771 79.2576 17.3474C79.2576 18.2631 79.0287 19.0755 78.5708 19.7845C78.1129 20.4787 77.4704 21.0252 76.6433 21.424C75.8309 21.808 74.8782 22 73.7852 22H70.1075ZM66.5183 22V6.2254H70.8607V22H66.5183ZM98.3166 22.2659C97.135 22.2659 96.0715 22.0222 95.1262 21.5347C94.1809 21.0473 93.435 20.3753 92.8885 19.5186C92.342 18.6472 92.0688 17.6649 92.0688 16.5719C92.0688 15.4642 92.342 14.482 92.8885 13.6253C93.4498 12.7538 94.2031 12.0744 95.1484 11.587C96.1084 11.0848 97.1866 10.8337 98.383 10.8337C99.2397 10.8337 100.008 10.9666 100.687 11.2325C101.381 11.4984 102.024 11.9045 102.615 12.451L99.8896 15.1762C99.6976 14.9989 99.4834 14.866 99.2471 14.7774C99.0108 14.6887 98.7228 14.6444 98.383 14.6444C98.0286 14.6444 97.7036 14.7257 97.4082 14.8881C97.1276 15.0358 96.8986 15.25 96.7214 15.5306C96.5441 15.8113 96.4555 16.1436 96.4555 16.5276C96.4555 16.9117 96.5441 17.2514 96.7214 17.5468C96.8986 17.8274 97.135 18.049 97.4304 18.2114C97.7258 18.3739 98.0433 18.4551 98.383 18.4551C98.7671 18.4551 99.0846 18.3961 99.3357 18.2779C99.5868 18.1597 99.8084 17.9973 100 17.7905L102.725 20.5156C102.09 21.1064 101.426 21.5495 100.732 21.8449C100.037 22.1255 99.2323 22.2659 98.3166 22.2659ZM111.009 22L107.974 16.2618L110.987 11.0996H115.662L111.762 16.9264L111.873 15.5085L115.883 22H111.009ZM103.986 22V5.78229H108.328V22H103.986ZM122.098 22.2659C120.828 22.2659 119.713 22.0295 118.753 21.5569C117.793 21.0695 117.039 20.3974 116.493 19.5408C115.961 18.6693 115.695 17.6723 115.695 16.5498C115.695 15.442 115.954 14.4598 116.471 13.6031C117.003 12.7465 117.726 12.0744 118.642 11.587C119.558 11.0848 120.592 10.8337 121.744 10.8337C122.881 10.8337 123.885 11.07 124.757 11.5427C125.628 12.0006 126.308 12.6431 126.795 13.4702C127.297 14.2973 127.548 15.2426 127.548 16.3061C127.548 16.5276 127.534 16.764 127.504 17.015C127.489 17.2514 127.445 17.532 127.371 17.857L117.534 17.9234V15.2648L125.754 15.1983L123.738 16.3725C123.738 15.7817 123.664 15.3017 123.516 14.9324C123.383 14.5484 123.176 14.2604 122.896 14.0684C122.615 13.8764 122.261 13.7804 121.832 13.7804C121.389 13.7804 121.005 13.8911 120.68 14.1127C120.355 14.3343 120.104 14.6518 119.927 15.0654C119.765 15.4789 119.683 15.9811 119.683 16.5719C119.683 17.1775 119.772 17.6871 119.949 18.1007C120.141 18.4995 120.414 18.8022 120.769 19.009C121.123 19.2158 121.567 19.3192 122.098 19.3192C122.615 19.3192 123.066 19.238 123.45 19.0755C123.849 18.8983 124.21 18.625 124.535 18.2557L126.707 20.4048C126.16 21.0252 125.503 21.4904 124.735 21.8006C123.967 22.1108 123.088 22.2659 122.098 22.2659ZM130.091 22V6.62419H134.433V22H130.091ZM127.765 14.6444V11.0996H136.76V14.6444H127.765Z" fill="#F59E0B"/>
<path fill-rule="evenodd" clip-rule="evenodd" d="M89.579 13.3997C89.579 13.3997 90.0429 12.4719 89.579 11.8534C89.1152 11.2349 88.342 11.2349 88.342 11.2349C88.342 11.2349 88.342 10.1083 87.4143 9.84331C86.4865 9.57828 85.868 10.6164 85.868 10.6164C85.868 10.6164 84.9403 10.1526 84.3218 10.4618C83.7033 10.7711 83.7033 11.6988 83.7033 11.6988C83.7033 11.6988 82.7755 11.5442 82.3116 12.0081C81.8478 12.4719 82.157 13.3997 82.157 13.3997H83.394H84.3218H87.4143H88.342H89.579Z" fill="#F59E0B"/>
<path d="M84.3218 13.3997H83.394H82.157H80.92L82.5603 20.7809L82.561 20.7843C82.6638 21.2462 82.7153 21.4777 82.8847 21.6134C83.0541 21.7495 83.292 21.7495 83.7679 21.7495H84.631L84.3218 13.3997Z" fill="#9F1239"/>
<path d="M87.4143 13.3997H84.3218L84.631 21.7495H87.105L87.4143 13.3997Z" fill="#9F1239"/>
<path d="M89.1758 20.7809L90.8161 13.3997H89.579H88.342H87.4143L87.105 21.7495H87.9678C88.4438 21.7495 88.6816 21.7495 88.8511 21.6134C89.0204 21.4777 89.0719 21.2467 89.1749 20.7848L89.1758 20.7809Z" fill="#9F1239"/>
<path d="M89.1758 20.7809L90.8161 13.3997M89.1758 20.7809L89.1749 20.7848M89.1758 20.7809C89.1755 20.7822 89.1752 20.7835 89.1749 20.7848M90.8161 13.3997H80.92M90.8161 13.3997H89.579M80.92 13.3997L82.5603 20.7809M80.92 13.3997H82.157M82.5603 20.7809L82.561 20.7843M82.5603 20.7809C82.5605 20.7821 82.5608 20.7832 82.561 20.7843M83.7679 21.7495C83.292 21.7495 83.0541 21.7495 82.8847 21.6134C82.7153 21.4777 82.6638 21.2462 82.561 20.7843M83.7679 21.7495H87.9678M83.7679 21.7495H84.631M87.9678 21.7495C88.4438 21.7495 88.6816 21.7495 88.8511 21.6134C89.0204 21.4777 89.0719 21.2467 89.1749 20.7848M87.9678 21.7495H87.105M87.105 21.7495L87.4143 13.3997M87.105 21.7495H84.631M87.4143 13.3997H84.3218M87.4143 13.3997H88.342M84.631 21.7495L84.3218 13.3997M84.3218 13.3997H83.394M88.342 21.7495H83.394M88.342 13.3997H83.394M88.342 13.3997H89.579M83.394 13.3997H82.157M82.157 13.3997C82.157 13.3997 81.8478 12.4719 82.3116 12.0081C82.7755 11.5442 83.7033 11.6988 83.7033 11.6988C83.7033 11.6988 83.7033 10.7711 84.3218 10.4618C84.9403 10.1526 85.868 10.6164 85.868 10.6164C85.868 10.6164 86.4865 9.57828 87.4143 9.84331C88.342 10.1083 88.342 11.2349 88.342 11.2349C88.342 11.2349 89.1152 11.2349 89.579 11.8534C90.0429 12.4719 89.579 13.3997 89.579 13.3997" stroke="white" stroke-width="0.84" stroke-linecap="round" stroke-linejoin="round"/>
</svg>
